<svg xmlns="http://www.w3.org/2000/svg" width="24" height="24" viewBox="0 0 24 24"><rect width="24" height="24" rx="5" fill="#121212"/><g transform="translate(2,2) scale(0.833)"><path fill="#ffffff" fill-rule="evenodd" d="M 1.17,11.3 L 5.11,0.8 L 6.99,0.8 L 10.93,11.3 L 9.12,11.3 L 8.19,8.63 L 3.94,8.63 L 2.98,11.3 L 1.17,11.3 M 4.49,7.1 L 7.61,7.1 L 6.09,2.76 L 5.99,2.76 L 4.49,7.1"/><path fill="#ffffff" d="M 22.03,10.13 L 22.03,7.8 Q 22.03,7.07 21.52,6.56 Q 21.01,6.05 20.28,6.05 L 14.93,6.05 L 17.03,8.15 L 16.2,8.97 L 12.7,5.47 L 16.2,1.97 L 17.03,2.78 L 14.93,4.88 L 20.28,4.88 Q 21.49,4.88 22.35,5.74 Q 23.2,6.59 23.2,7.8 L 23.2,10.13 L 22.03,10.13"/><path fill="#ffffff" d="M 1.97,13.87 L 1.97,16.2 Q 1.97,16.93 2.48,17.44 Q 2.99,17.95 3.72,17.95 L 9.07,17.95 L 6.97,15.85 L 7.8,15.03 L 11.3,18.53 L 7.8,22.03 L 6.97,21.22 L 9.07,19.12 L 3.72,19.12 Q 2.51,19.12 1.65,18.26 Q 0.8,17.41 0.8,16.2 L 0.8,13.87 L 1.97,13.87"/><path fill="#ffffff" d="M 19.14,18.02 L 20.49,18.02 L 20.49,16.04 L 19.14,16.04 L 19.14,18.02 M 13.35,23.05 L 12.94,21.97 L 13.89,21.97 Q 14.01,21.97 14.12,21.88 Q 14.22,21.8 14.22,21.68 L 14.22,19.23 L 12.97,19.64 L 12.7,18.58 L 14.22,18.12 L 14.22,15.94 L 12.87,15.94 L 12.87,14.93 L 14.22,14.93 L 14.22,12.7 L 15.29,12.7 L 15.29,14.93 L 16.38,14.93 L 16.38,15.94 L 15.26,15.94 L 15.26,17.8 L 16.23,17.49 L 16.38,18.51 L 15.26,18.89 L 15.26,21.92 Q 15.26,22.35 15.01,22.7 Q 14.76,23.05 14.35,23.05 L 13.35,23.05 M 16.72,23.2 L 16.01,22.43 Q 16.86,21.87 17.41,21 Q 17.95,20.13 17.97,19.09 L 16.33,19.09 L 16.33,18 L 18.07,18 L 18.07,16.04 L 16.76,16.04 L 16.76,15.05 L 22.89,15.05 L 22.89,16.11 L 21.51,16.11 L 21.51,18.12 L 23.2,18.12 L 23.15,19.09 L 21.51,19.09 L 21.51,23.08 L 20.44,23.08 L 20.44,19.09 L 19.04,19.09 Q 18.99,20.35 18.37,21.42 Q 17.76,22.5 16.72,23.2 M 21.39,15.29 L 20.39,15.05 L 20.93,13.89 Q 21.19,13.3 21.39,12.7 L 22.47,13.09 Q 22.23,13.64 21.95,14.19 Q 21.68,14.73 21.39,15.29 M 18.46,15.24 Q 18.22,14.68 17.95,14.15 Q 17.68,13.62 17.35,13.14 L 18.31,12.72 Q 18.65,13.21 18.92,13.74 Q 19.18,14.27 19.43,14.83 L 18.46,15.24"/></g></svg>
